<?xml version="1.0" encoding="UTF-8" standalone="no"?>
<!-- Created with Inkscape (http://www.inkscape.org/) -->

<svg
   width="179.82065"
   height="97.511307"
   viewBox="0 0 179.82065 97.511307"
   version="1.1"
   id="svg1"
   xml:space="preserve"
   xmlns:inkscape="http://www.inkscape.org/namespaces/inkscape"
   xmlns:sodipodi="http://sodipodi.sourceforge.net/DTD/sodipodi-0.dtd"
   xmlns:xlink="http://www.w3.org/1999/xlink"
   xmlns="http://www.w3.org/2000/svg"
   xmlns:svg="http://www.w3.org/2000/svg"><sodipodi:namedview
     id="namedview1"
     pagecolor="#ffffff"
     bordercolor="#000000"
     borderopacity="0.25"
     inkscape:showpageshadow="2"
     inkscape:pageopacity="0.0"
     inkscape:pagecheckerboard="0"
     inkscape:deskcolor="#d1d1d1"
     inkscape:document-units="px"><inkscape:page
       x="0"
       y="0"
       width="179.82065"
       height="97.511307"
       id="page2"
       margin="0"
       bleed="0" /></sodipodi:namedview><defs
     id="defs1"><linearGradient
       id="linearGradient12"
       inkscape:collect="always"><stop
         style="stop-color:#a049b9;stop-opacity:1;"
         offset="0.36895037"
         id="stop13" /><stop
         style="stop-color:#7cccab;stop-opacity:1;"
         offset="0.67346621"
         id="stop52" /><stop
         style="stop-color:#7cccab;stop-opacity:0;"
         offset="1"
         id="stop14" /></linearGradient><linearGradient
       inkscape:collect="always"
       xlink:href="#linearGradient12"
       id="linearGradient14"
       x1="4.2639709"
       y1="8.6228762"
       x2="10.905494"
       y2="2.8494887"
       gradientUnits="userSpaceOnUse"
       gradientTransform="matrix(1.0519964,0,0,1.0519964,0.41673224,0.46551956)" /></defs><g
     inkscape:label="Camada 1"
     inkscape:groupmode="layer"
     id="layer1"
     transform="translate(-0.23339576,-44.801086)"><g
       inkscape:label="Camada 1"
       id="layer1-5"
       transform="matrix(14.322615,0,0,14.322615,-6.4934485,-0.00653032)"
       style="stroke-width:0.263885"><path
         style="opacity:1;fill:url(#linearGradient14);fill-opacity:1;stroke:none;stroke-width:0.00791656;stroke-linecap:round;stroke-linejoin:round;stroke-opacity:1"
         d="M 4.9159287,9.6450121 C 4.0564845,9.6008954 4.8793582,9.761682 4.8783945,9.8933391 4.8774271,10.025506 7.14427,9.2922919 7.3653517,9.2108418 7.9507186,8.9951793 8.8598365,8.5676119 9.3054221,8.1220263 9.4341198,7.9933283 9.4771069,7.9011911 9.5231849,7.7260934 9.6218482,7.3511743 9.2230687,7.1831388 9.1074559,6.8748381 8.9726407,6.5153313 9.211684,6.1582368 9.4439986,5.9048029 10.063207,5.2293025 10.876394,4.8493847 11.720612,4.5190383 c 0.151895,-0.059437 0.778103,-0.4257675 0.889027,-0.5045796 0.066,-0.046885 0.255355,-0.2673819 0.26918,-0.282353 0.128677,-0.1393299 0.129492,-0.2700317 0.145576,-0.4596261 0.0079,-0.093198 -0.148316,-0.1322417 -0.376745,-0.1395147 -0.148623,-0.027987 -1.239659,0.082683 -1.362564,0.099293 C 10.11353,3.3905755 9.1063489,3.6882193 8.0780328,4.2814787 7.8627938,4.405655 7.7973969,4.4344494 7.6029136,4.5982249 7.4635341,4.7155973 7.3232141,4.8881099 7.2861674,5.0733441 7.2605322,5.2015195 7.2958646,5.2983234 7.1871842,5.4098869 7.0221408,5.5793085 6.5583079,5.6374913 6.4686732,5.6449548 6.2013285,5.6672154 5.632462,5.698232 5.0179052,5.5984887 4.8263435,5.5673981 4.1421953,5.3625753 3.5776704,5.3445776 3.3101622,5.3360491 3.6702865,5.7930375 3.8402931,5.612073"
         id="path3"
         sodipodi:nodetypes="cssssssssssccsssssssc" /><text
         xml:space="preserve"
         style="font-style:normal;font-variant:normal;font-weight:normal;font-stretch:normal;font-size:7.05517px;line-height:1.3;font-family:Forte;-inkscape-font-specification:Forte;text-align:start;writing-mode:lr-tb;direction:ltr;text-anchor:start;opacity:1;fill:#a049b9;fill-opacity:1;stroke:none;stroke-width:0.00791656;stroke-linecap:round;stroke-linejoin:round;stroke-opacity:1"
         x="0.3319189"
         y="10.293156"
         id="text53"
         transform="scale(1.0379572,0.96343086)"><tspan
           sodipodi:role="line"
           id="tspan53"
           style="font-style:normal;font-variant:normal;font-weight:normal;font-stretch:normal;font-family:Forte;-inkscape-font-specification:Forte;stroke-width:0.00791656"
           x="0.3319189"
           y="10.293156">A</tspan></text></g></g></svg>
